<svg xmlns="http://www.w3.org/2000/svg" width="16" height="16" fill="currentColor"><path fill="currentColor" d="M28 153c3-5 6-10 10-14 7-9 16-17 25-24 19-15 42-26 65-33 27-9 55-14 83-16 32-3 65-3 98 1 30 3 60 9 88 20 25 10 48 24 68 42 5 5 10 10 14 16 4 4 7 10 7 16 1 7 0 14-2 21-1 7-3 15-5 22-1 3-2 6-2 8-8 33-19 64-34 94-13 25-29 49-47 70-18 20-38 37-61 50-12 6-25 12-39 16-7 2-14 4-22 5-2 1-4 1-5 1-3 0-5 0-8 0-5 0-9 0-14 0-2 0-4 0-6 0-2 0-4-1-6-1-4-1-8-1-12-2-7-2-14-4-21-7-14-6-28-13-40-22-24-16-45-38-63-61-19-25-34-53-46-82-12-31-20-63-26-96 0-4-1-8-1-13 0-2 0-4 0-7 0-1 0-1 0-2 1-1 1-2 2-2z m30 20c0 2 0 4 1 7 1 4 2 8 3 12 6 15 13 29 22 42 4 7 8 13 12 20 5 7 9 14 14 20 8 10 18 21 31 26 18 5 31-13 42-25 6-7 12-13 20-17 4-2 8-3 12-3 6 1 12 5 16 9 13 10 23 23 32 36 11 13 21 28 33 40 5 6 10 12 17 15 3 1 7 0 10-1 2-1 3-2 4-3 2-2 4-3 5-4 13-10 25-21 36-32 10-10 20-21 28-32 9-10 18-21 25-33 8-14 16-29 24-44 7-13 15-29 7-44 0-1 0-1-1-2-13-22-37-36-60-45-28-11-59-17-89-19-31-2-62-2-93 1-28 3-57 8-83 18-22 9-43 21-58 40-3 4-6 9-9 14 0 1-1 1-1 2 0 1-1 1 0 2z" ></path></svg>