<svg xmlns="http://www.w3.org/2000/svg" width="16" height="16" fill="currentColor"><path fill="currentColor" d="M220 185c0-11-10-21-21-21-12 0-21 10-21 21 0 12 9 21 21 21 11 0 21-9 21-21z m233 23c0-61-50-111-111-111-1 0-2 0-3 0-20-42-62-71-112-71-67 0-122 54-122 122 0 54 35 100 83 116 2 83-29 138-65 135-37-3-67-3-64 15 4 19 34-1 37 22 4 24-13 34 12 48 24 12 30-19 28-49 86 22 158-82 180-118 8 1 17 3 26 3 61 0 111-50 111-112z m-237 62c4 1 8 1 11 1 7 0 14-1 21-2 12 19 30 33 51 42-62 97-116 110-147 106 55-42 63-126 64-147z m108-122c0 43-28 79-66 91 0 0 0 0 0 0-7 2-15 4-22 5 0 0 0 0 0 0-3 0-6 0-9 0-53 0-96-43-96-96 0-53 43-96 96-96 36 0 68 20 84 49 0 0 0 0 0 0 3 7 6 13 9 21 0 0 0 0 0 0 2 8 4 17 4 26z m107 60c0 50-40 90-89 90-29 0-55-14-71-35 46-18 79-62 79-115 0-10-1-20-4-29 48 2 85 41 85 89z" ></path></svg>