<svg xmlns="http://www.w3.org/2000/svg" width="16" height="16" fill="currentColor"><path fill="currentColor" d="M256 26c55 0 106 19 145 51l81-29-34 81 0 0c24 37 38 80 38 127 0 127-103 230-230 230-127 0-230-103-230-230 0-127 103-230 230-230z m-127 290l47 11c14 26 41 44 73 44 18 0 35-5 48-15l47 11c11 2 22-6 25-18l31-134c3-12-3-24-14-27l-216-50c-11-3-22 5-25 17l-31 134c-3 12 4 24 15 27z m132-120c32 0 58 26 58 58 0 32-26 58-58 58-32 0-58-26-58-58 0-32 26-58 58-58z m0 95c20 0 37-16 37-37 0-20-17-37-37-37-21 0-37 17-37 37 0 21 16 37 37 37z" ></path></svg>