<svg xmlns="http://www.w3.org/2000/svg" width="16" height="16" fill="currentColor"><path fill="currentColor" d="M353 158c-3 0-4-1-6-4-4-5-12-14-24-27-21-20-35-31-45-31l-2 0c-6 2-8 8-7 13 0 8 2 14 4 21 15 47 38 91 57 137 11 24 23 47 32 72 3 9 6 19 6 29 0 15-10 25-23 28l-2 0c-3 0-2-3-4-14-1-7-4-15-6-22-11-34-28-65-43-96l-5-9 0 4c-3 17-22 28-39 28-25 0-45-15-63-32-22-22-39-52-48-79-16-51-21-116 37-117 16 0 34 11 52 34l3 3c0 0 0-2 0-3 0-16 9-34 27-34 20 0 43 18 77 57 10 11 18 21 23 30 2 3 3 5 3 7 0 3-2 5-4 5z m-122-21c-9-15-21-29-30-37-6-4-11-6-15-6-11 0-18 11-17 28 1 41 20 84 48 117 9 10 18 22 32 22 12 0 18-8 18-21-1-37-17-72-36-103z m-18 272l25 7c4 1 8 5 9 9l6 25c1 4 3 4 4 0l6-25c1-4 5-8 9-9l25-7c4-1 4-2 0-3l-25-7c-4-1-8-5-9-8l-6-26c-1-4-3-4-4 0l-6 26c-1 3-5 7-9 8l-25 7c-4 1-4 2 0 3z m-74-183l-15 61c-3 10-13 20-23 23l-68 18c-10 2-10 6 0 9l68 18c10 2 20 13 23 23l17 68c3 10 7 10 10 0l18-68c2-10 12-21 22-23l68-18c10-3 10-7 0-9l-68-18c-10-3-20-13-22-23l-9-31c-7-9-14-19-21-30z m303-18l40-11c6-1 6-4 0-5l-40-11c-6-1-12-7-14-13l-10-41c-2-5-4-5-6 0l-10 41c-2 6-8 12-14 13l-40 11c-6 1-6 4 0 5l40 11c6 2 12 8 14 14l10 40c2 6 4 6 6 0l10-40c2-6 8-12 14-14z" ></path></svg>