<svg xmlns="http://www.w3.org/2000/svg" width="16" height="16" fill="currentColor"><path fill="currentColor" d="M450 374c-17 0-31-11-35-27l-160 53c0 11-9 20-20 20-11 0-21-9-21-20 0-6 3-11 6-14l-169-194c-2 1-4 1-6 1-11 0-19-8-19-19 0-10 8-19 19-19 7 0 13 4 17 11l153-37c0-2-1-5-1-7 0-19 16-34 34-34 19 0 34 15 34 34 0 3 0 7-1 10l117 48c3-3 8-5 13-5 10 0 18 8 18 18 0 6-3 12-7 15l19 94c3 0 6-1 9-1 20 0 36 17 36 37 0 20-16 36-36 36z m-203 9l72-88-73-30-5 115c2 1 4 2 6 3z m-12-4l4-117-33-13c-1 3-4 5-6 7l28 124c2-1 5-1 7-1z m-27-140c0 1 0 3 0 4l32 13 4-100c-3-1-6-1-9-2l-33 70c4 4 6 9 6 15z m61-90c-5 4-12 7-19 7l-4 102 77 32 35-43z m59 143l88 35c1-4 3-7 5-11l-60-65z m86 41l-90-36-73 89c2 3 3 6 4 9l159-53c0-1 0-3 0-4 0-2 0-3 0-5z m-190 49c0 0 0 0 0 0l-28-124c-3 1-5 2-8 2-11 0-21-9-21-21 0-2 1-4 1-5l-111-45c0 0-1 1-2 1z m-161-212c0 2 1 3 1 4 0 4-1 7-3 9l110 45c3-6 10-9 17-9 4 0 7 1 10 2l33-70c-7-4-12-10-15-17z m216-34c-2 4-4 7-6 10l88 97 34-41c-1-3-2-6-2-9 0-3 1-6 2-9z m139 75c-2 0-5 1-7 1-5 0-10-2-13-6l-34 41 60 66c4-4 8-7 13-9z" ></path></svg>