<svg xmlns="http://www.w3.org/2000/svg" width="16" height="16" fill="currentColor"><path fill="currentColor" d="M152 387l-74 0 93 94 0-76z m265 37c-8 14-50 30-71 30-22 0-56 0-56 0 0 0-18 32-60 32-42 0-39-18-39-34l0-65-19-20-88 0c0 0-25-17-25-52 0-36 11-159 85-171 87-13 102 27 102 32 0 21 1 52 1 52 0 0 25-49 64-49 39 0 61-22 61-45 0-23 0-42 0-42 0 0-1-27-24-27-23 0-49 0-49 0 0 0-15 13-15 30 0 17 7 22 16 22 10 0 17-1 17-1l0 36c0 0-73 0-73-56 0-56 38-70 69-70 30 0 50 0 50 0 0 0 90 11 90 190 0 178-28 195-36 208z m-90-159c0 0 5 29 22 29 17 0 40-39 40-39 0 0-53 10-62 10z" ></path></svg>