<svg xmlns="http://www.w3.org/2000/svg" width="16" height="16" fill="currentColor"><path fill="currentColor" d="M216 451c30 23 70 35 112 35 31 0 61-6 87-19l0 0 0 0c6-3 10-10 10-17 0-2 0-4 0-5-2-6-6-10-11-12-2-1-5-1-7-1-3 0-6 0-8 2-17 8-35 13-54 15-15 3-31 4-47 4-37 0-73-8-104-23 7 7 14 14 22 21z m232-297c0 6-3 11-8 15-3 2-7 3-10 3-6 0-12-2-15-7-10-14-20-24-31-31-13-9-34-22-34-23l0 0c-5-3-8-9-8-15l0-24-57 24c-2 1-5 1-7 1l-1 0c-4 0-9 0-13 0-63 0-121 26-150 68l-1 0 1 0c-1 0-2 1-3 2l0 0 0 0c-12 18-18 37-18 56 0 35 20 67 50 89 31 23 74 37 120 37 34 0 67-8 95-22l1 0 0 0c14-7 25-17 33-27 8-10 12-22 12-34 0-20-11-38-30-52-22-16-51-24-82-24-8 0-16 0-23 1l-1 0 0 0c-21 4-42 11-60 21l0 0 0 0c-35 21-55 51-55 84 0 2 0 5 0 7-14-10-25-22-33-35 8-35 33-67 70-88l1-1 0 0c22-12 46-20 72-24l1 0 0 0c9-1 18-2 28-2 39 0 76 11 103 31 30 22 46 51 46 82 0 38-24 73-66 94l-1 1 0 0c-33 16-71 25-111 25-54 0-106-17-144-46-41-31-63-73-63-117 0-28 9-55 26-79 1-1 2-2 3-3l0 0 0 0c37-50 105-81 179-81 3 0 7 0 10 0l1 0 78-33c2-1 5-1 7-1 4 0 7 1 10 3 6 3 9 9 9 15l0 42 1 1c7 5 17 11 25 16 15 10 28 24 40 40 2 4 3 7 3 11z m-150 80l0-3 0 3 0 0c9-1 17-2 25-2 22 0 43 4 62 12 4 7 7 15 7 22 0 7-2 13-5 20-18-11-40-17-64-17-6 0-13 1-19 2-44 6-78 29-93 58-12-3-23-7-34-12 18-42 64-74 121-83z m158 99c0 33-22 65-58 83l-2 1 0 0c-29 14-63 22-98 22-48 0-93-14-127-40-11-9-21-19-29-29 35 18 76 28 119 29 12 2 24 4 37 4 30 0 58-7 83-19l1-1 0 0c16-9 28-21 33-34 16-14 27-30 34-48 4 10 7 21 7 32z" ></path></svg>