<svg xmlns="http://www.w3.org/2000/svg" width="16" height="16" fill="currentColor"><path fill="currentColor" d="M407 486l-125 0c-32 0-73-4-108-33-26-22-39-53-39-81 0-47 37-95 101-95 6 0 12 1 19 1-3-7-6-13-6-23 0-19 10-30 18-41-27-2-78-5-115-28-36-21-47-52-47-74 0-45 42-86 130-86 104 0 159 57 159 114 0 42-24 62-50 85l-22 17c-7 5-16 12-16 26 0 13 9 21 17 29 25 20 51 41 51 86 0 46-29 70-43 82l37 0z m-53-370c0-37-31-65-89-65-65 0-107 31-107 74 0 43 39 57 52 62 26 9 58 10 64 10 6 0 9 0 14-1 46-32 66-49 66-80z m-49 195c-9-10-26-17-41-17-52 0-75 67-75 108 0 15 3 32 13 45 10 12 26 19 42 19 50 0 77-67 77-111 0-11-2-30-16-44z" ></path></svg>