<svg xmlns="http://www.w3.org/2000/svg" width="16" height="16" fill="currentColor"><path fill="currentColor" d="M470 284l4 81-155 0-23-126 1 0c-2-4-3-8-4-13l0-20 15 0 0-29c16-17 43-30 80-30 58 0 98 37 98 90 0 16-5 33-16 47z m-81-117c-47 0-76 25-76 49 0 16 11 30 31 30 13 0 20-9 20-19 0-6-2-8-2-13 0-6 3-11 14-11 15 0 22 16 22 32 0 14-5 25-17 25-9 0-14-4-15-9l-44 5 16 89 117 0-2-45-78 0-4-23c5 8 21 14 41 14 37 0 56-28 56-54 0-39-28-70-79-70z m-76 59l0 126-85 0 0-38-28 0 0-75 15 0 0-13-15 0 0-74 128 0 0 74z m-65 106l45 0 0-29-45 0z m60-160l-88 0 0 34 15 0 0 53-15 0 0 34 73 0 0-87 15 0z m-88 0l0 34 15 0 0 20-16 0 0 30c0 34-24 60-55 60-9 0-18-2-25-5l0 54-113 0 0-75 15 0 0-64-15 0 0-74 209 0 0 20-15 0z m-5 0l-80 0 0 34 6 0 0 35c0 10 0 20-6 20-6 0-12-8-16-23l0-32 6 0 0-34-79 0 0 34 15 0 0 104-15 0 0 35 73 0 0-78c8 15 24 29 45 29 20 0 35-17 35-40l0-50 16 0z" ></path></svg>