<svg xmlns="http://www.w3.org/2000/svg" width="16" height="16" fill="currentColor"><path fill="currentColor" d="M374 486c10 0 21 0 32 0 11 1 27-31 23-44-3-9-27-13-32-20-9-11-5-47-5-70 0-63 0-124 0-191 0-11-2-32 1-35 4-4 16-2 21-3 11-4 25-25 16-40-3-4-14-7-22-10-18-9-50-19-76-17-15 1-39 23-36 39 1 7 7 11 15 14 5 2 17 1 22 6 6 5 1 30 1 43 0 8 0 14 0 24 0 8 0 20-1 23-4 5-38 1-46 0-34-5-53-8-82-17-8-3-29-6-34-15-6-9-1-40 0-54 0-6-2-19 1-23 4-6 19-3 23-5 9-3 22-17 20-30-2-24-60-33-88-35-11-1-15-1-22 1-13 3-29 20-27 33 1 10 15 16 25 19 3 1 9 2 11 4 4 4 1 24 0 35-4 34-5 76-6 111 0 42-3 71-3 114 0 12 2 32-1 36-4 5-15 4-22 7-11 5-17 12-23 27 0 3 0 5 0 8 10 20 35 24 62 29 39 7 76 15 87-18 2-6 4-17 0-23-7-11-33-8-38-18-3-3-2-17-2-29 0-36-5-62-2-99 0-5 2-22 6-24 5-3 15 2 20 3 37 8 59 13 99 18 10 1 36 1 41 5 8 7 3 25 2 35-3 27-3 47 0 74 1 10 4 30-1 35-4 4-17 4-21 6-14 6-31 20-25 41 2 5 10 10 16 13 21 11 46 12 71 17z" ></path></svg>